HIERARCHY
ROOT Hips
{
	OFFSET 0.000000 0.000000 0.000000
	CHANNELS 6 Xposition Yposition Zposition Zrotation Yrotation Xrotation 
	JOINT Spine1
	{
		OFFSET 0.000000 10.000000 0.000000
		CHANNELS 3 Zrotation Yrotation Xrotation
		JOINT Spine2
		{
			OFFSET 0.000000 10.000000 0.000000
			CHANNELS 3 Zrotation Yrotation Xrotation
			JOINT Spine3
			{
				OFFSET 0.000000 10.000000 0.000000
				CHANNELS 3 Zrotation Yrotation Xrotation
				JOINT Spine4
				{
					OFFSET 0.000000 10.000000 0.000000
					CHANNELS 3 Zrotation Yrotation Xrotation
					End Site
					{
						OFFSET 0.000000 0.000000 0.000000
					}
				}
			}
		}
	}
}
MOTION
Frames: 63
Frame Time: 0.033333
0.000000 0.000000 0.000000 0.000000 0.000000 -0.000000 0.000000 0.000000 -0.000000 0.000000 0.000000 -0.000000 0.000000 0.000000 -0.000000 0.000000 0.000000 -0.000000 
0.000000 0.000000 0.000000 3.437747 0.000000 2.291831 2.578310 0.000000 1.718873 1.718873 0.000000 1.145916 0.859437 0.000000 0.572958 0.000000 0.000000 0.000000 
0.000000 0.000000 0.000000 6.584599 -0.000595 4.389336 5.022293 -0.000544 3.348117 3.387359 -0.000417 2.258314 1.705269 -0.000226 1.136924 0.000000 0.000000 0.000000 
0.000000 0.000000 0.000000 9.404494 -0.004824 6.266447 7.289568 -0.004336 4.859100 4.969420 -0.003275 3.313587 2.516993 -0.001758 1.678657 0.000000 0.000000 0.000000 
0.000000 0.000000 0.000000 11.885251 -0.017120 7.912087 9.356735 -0.015157 6.235724 6.442608 -0.011290 4.297472 3.281240 -0.006010 2.189938 0.000000 0.000000 0.000000 
0.000000 0.000000 0.000000 14.034117 -0.041685 9.328288 11.217034 -0.036388 7.473076 7.796947 -0.026729 5.204098 3.991371 -0.014100 2.667082 0.000000 0.000000 0.000000 
0.000000 0.000000 0.000000 15.871550 -0.081462 10.526725 12.876031 -0.070175 8.574658 9.032087 -0.050830 6.033901 4.646048 -0.026559 3.109809 0.000000 0.000000 0.000000 
0.000000 0.000000 0.000000 17.425319 -0.137779 11.525026 14.347061 -0.117225 9.549352 10.154051 -0.083737 6.791355 5.247526 -0.043323 3.520009 0.000000 0.000000 0.000000 
0.000000 0.000000 0.000000 18.725949 -0.210466 12.343655 15.647456 -0.177006 10.408871 11.172449 -0.124711 7.483078 5.800143 -0.063872 3.900725 0.000000 0.000000 0.000000 
0.000000 0.000000 0.000000 19.803739 -0.298213 13.003684 16.795889 -0.248103 11.165924 12.098426 -0.172448 8.116501 6.309199 -0.087413 4.255436 0.000000 0.000000 0.000000 
0.000000 0.000000 0.000000 20.687053 -0.398973 13.525387 17.810706 -0.328587 11.833059 12.943346 -0.225357 8.699032 6.780225 -0.113034 4.587629 0.000000 0.000000 0.000000 
0.000000 0.000000 0.000000 21.401527 -0.510324 13.927468 18.709023 -0.416317 12.422010 13.718029 -0.281783 9.237610 7.218544 -0.139821 4.900557 0.000000 0.000000 0.000000 
0.000000 0.000000 0.000000 21.969840 -0.629745 14.226730 19.506312 -0.509151 12.943398 14.432373 -0.340144 9.738493 7.629055 -0.166929 5.197141 0.000000 0.000000 0.000000 
0.000000 0.000000 0.000000 22.411791 -0.754798 14.437995 20.216279 -0.605090 13.406635 15.095203 -0.399017 10.207196 8.016135 -0.193612 5.479938 0.000000 0.000000 0.000000 
0.000000 0.000000 0.000000 22.744533 -0.883255 14.574186 20.850927 -0.702345 13.819952 15.714266 -0.457174 10.648516 8.383627 -0.219245 5.751158 0.000000 0.000000 0.000000 
0.000000 0.000000 0.000000 22.982870 -1.013150 14.646480 21.420678 -0.799383 14.190486 16.296288 -0.513592 11.066585 8.734862 -0.243317 6.012690 0.000000 0.000000 0.000000 
0.000000 0.000000 0.000000 23.139552 -1.142813 14.664493 21.934542 -0.894925 14.524390 16.847072 -0.567446 11.464950 9.072704 -0.265426 6.266146 0.000000 0.000000 0.000000 
0.000000 0.000000 0.000000 23.225559 -1.270867 14.636461 22.400290 -0.987941 14.826948 17.371599 -0.618092 11.846638 9.399603 -0.285266 6.512896 0.000000 0.000000 0.000000 
0.000000 0.000000 0.000000 23.250349 -1.396211 14.569425 22.824606 -1.077628 15.102691 17.874133 -0.665048 12.214239 9.717642 -0.302615 6.754101 0.000000 0.000000 0.000000 
0.000000 0.000000 0.000000 23.222081 -1.517997 14.469389 23.213241 -1.163388 15.355494 18.358311 -0.707969 12.569957 10.028586 -0.317320 6.990749 0.000000 0.000000 0.000000 
0.000000 0.000000 0.000000 23.147798 -1.635603 14.341463 23.571137 -1.244798 15.588670 18.827231 -0.746632 12.915676 10.333930 -0.329285 7.223679 0.000000 0.000000 0.000000 
0.000000 0.000000 0.000000 23.033595 -1.748602 14.189995 23.902541 -1.321588 15.805049 19.283526 -0.780909 13.252999 10.634928 -0.338465 7.453603 0.000000 0.000000 0.000000 
0.000000 0.000000 0.000000 22.884748 -1.856735 14.018676 24.211101 -1.393618 16.007044 19.729430 -0.810756 13.583294 10.932635 -0.344850 7.681127 0.000000 0.000000 0.000000 
0.000000 0.000000 0.000000 22.705835 -1.959881 13.830637 24.499951 -1.460853 16.196716 20.166830 -0.836195 13.907728 11.227929 -0.348463 7.906765 0.000000 0.000000 0.000000 
0.000000 0.000000 0.000000 22.500833 -2.058037 13.628530 24.771778 -1.523345 16.375817 20.597318 -0.857301 14.227292 11.521538 -0.349348 8.130953 0.000000 0.000000 0.000000 
0.000000 0.000000 0.000000 22.273198 -2.151294 13.414603 25.028889 -1.581217 16.545840 21.022230 -0.874190 14.542832 11.814062 -0.347570 8.354063 0.000000 0.000000 0.000000 
0.000000 0.000000 0.000000 22.025945 -2.239815 13.190753 25.273263 -1.634648 16.708054 21.442685 -0.887012 14.855064 12.105991 -0.343206 8.576407 0.000000 0.000000 0.000000 
0.000000 0.000000 0.000000 21.761702 -2.323826 12.958584 25.506592 -1.683858 16.863535 21.859609 -0.895941 15.164595 12.397716 -0.336344 8.798251 0.000000 0.000000 0.000000 
0.000000 0.000000 0.000000 21.482763 -2.403591 12.719448 25.730323 -1.729103 17.013196 22.273767 -0.901167 15.471940 12.689549 -0.327077 9.019816 0.000000 0.000000 0.000000 
0.000000 0.000000 0.000000 21.191137 -2.479411 12.474484 25.945693 -1.770657 17.157809 22.685783 -0.902895 15.777530 12.981730 -0.315505 9.241286 0.000000 0.000000 0.000000 
0.000000 0.000000 0.000000 20.888583 -2.551606 12.224651 26.153755 -1.808814 17.298024 23.096160 -0.901335 16.081726 13.274439 -0.301727 9.462816 0.000000 0.000000 0.000000 
0.000000 0.000000 0.000000 20.576645 -2.620510 11.970756 26.355404 -1.843875 17.434389 23.505297 -0.896704 16.384830 13.567801 -0.285846 9.684530 0.000000 0.000000 0.000000 
0.000000 0.000000 0.000000 20.256680 -2.686463 11.713478 26.551400 -1.876145 17.567365 23.913503 -0.889217 16.687090 13.861898 -0.267961 9.906529 0.000000 0.000000 0.000000 
0.000000 0.000000 0.000000 19.929883 -2.749806 11.453385 26.742387 -1.905930 17.697335 24.321008 -0.879088 16.988707 14.156773 -0.248172 10.128892 0.000000 0.000000 0.000000 
0.000000 0.000000 0.000000 19.597311 -2.810876 11.190956 26.928905 -1.933531 17.824621 24.727979 -0.866529 17.289845 14.452435 -0.226576 10.351679 0.000000 0.000000 0.000000 
0.000000 0.000000 0.000000 19.259896 -2.870003 10.926596 27.111411 -1.959244 17.949488 25.134523 -0.851747 17.590632 14.748866 -0.203265 10.574934 0.000000 0.000000 0.000000 
0.000000 0.000000 0.000000 18.918468 -2.927505 10.660642 27.290285 -1.983356 18.072155 25.540701 -0.834942 17.891166 15.046022 -0.178332 10.798686 0.000000 0.000000 0.000000 
0.000000 0.000000 0.000000 18.573763 -2.983691 10.393381 27.465844 -2.006144 18.192802 25.946530 -0.816307 18.191519 15.343840 -0.151862 11.022951 0.000000 0.000000 0.000000 
0.000000 0.000000 0.000000 18.226439 -3.038852 10.125058 27.638349 -2.027874 18.311576 26.351993 -0.796030 18.491742 15.642237 -0.123939 11.247732 0.000000 0.000000 0.000000 
0.000000 0.000000 0.000000 17.877083 -3.093267 9.855877 27.808018 -2.048800 18.428596 26.757044 -0.774288 18.791864 15.941117 -0.094643 11.473025 0.000000 0.000000 0.000000 
0.000000 0.000000 0.000000 17.526224 -3.147197 9.586018 27.975026 -2.069163 18.543956 27.161612 -0.751253 19.091897 16.240374 -0.064049 11.698813 0.000000 0.000000 0.000000 
0.000000 0.000000 0.000000 17.174338 -3.200889 9.315633 28.139514 -2.089192 18.657731 27.565602 -0.727087 19.391842 16.539887 -0.032230 11.925075 0.000000 0.000000 0.000000 
0.000000 0.000000 0.000000 16.821855 -3.254571 9.044856 28.301599 -2.109101 18.769980 27.968907 -0.701945 19.691682 16.839532 0.000745 12.151780 0.000000 0.000000 0.000000 
0.000000 0.000000 0.000000 16.469164 -3.308456 8.773805 28.461369 -2.129093 18.880748 28.371401 -0.675973 19.991393 17.139174 0.034812 12.378891 0.000000 0.000000 0.000000 
0.000000 0.000000 0.000000 16.116621 -3.362742 8.502586 28.618894 -2.149356 18.990068 28.772951 -0.649310 20.290939 17.438678 0.069907 12.606367 0.000000 0.000000 0.000000 
0.000000 0.000000 0.000000 15.764550 -3.417607 8.231295 28.774228 -2.170067 19.097965 29.173412 -0.622087 20.590277 17.737900 0.105973 12.834161 0.000000 0.000000 0.000000 
0.000000 0.000000 0.000000 15.413249 -3.473218 7.960020 28.927411 -2.191388 19.204457 29.572635 -0.594428 20.889357 18.036698 0.142952 13.062220 0.000000 0.000000 0.000000 
0.000000 0.000000 0.000000 15.062990 -3.529725 7.688843 29.078472 -2.213471 19.309553 29.970464 -0.566450 21.188123 18.334925 0.180791 13.290492 0.000000 0.000000 0.000000 
0.000000 0.000000 0.000000 14.714027 -3.587264 7.417842 29.227429 -2.236456 19.413260 30.366741 -0.538261 21.486514 18.632437 0.219440 13.518916 0.000000 0.000000 0.000000 
0.000000 0.000000 0.000000 14.366591 -3.645955 7.147091 29.374296 -2.260469 19.515582 30.761307 -0.509965 21.784464 18.929088 0.258849 13.747432 0.000000 0.000000 0.000000 
0.000000 0.000000 0.000000 14.020900 -3.705907 6.876662 29.519078 -2.285628 19.616518 31.154002 -0.481659 22.081905 19.224733 0.298973 13.975977 0.000000 0.000000 0.000000 
0.000000 0.000000 0.000000 13.677153 -3.767217 6.606625 29.661779 -2.312038 19.716066 31.544666 -0.453433 22.378766 19.519230 0.339766 14.204486 0.000000 0.000000 0.000000 
0.000000 0.000000 0.000000 13.335538 -3.829966 6.337048 29.802398 -2.339794 19.814223 31.933143 -0.425372 22.674973 19.812437 0.381187 14.432890 0.000000 0.000000 0.000000 
0.000000 0.000000 0.000000 12.996229 -3.894228 6.068001 29.940932 -2.368984 19.910985 32.319276 -0.397555 22.970451 20.104219 0.423195 14.661122 0.000000 0.000000 0.000000 
0.000000 0.000000 0.000000 12.659388 -3.960064 5.799549 30.077377 -2.399682 20.006348 32.702915 -0.370055 23.265124 20.394438 0.465749 14.889113 0.000000 0.000000 0.000000 
0.000000 0.000000 0.000000 12.325165 -4.027523 5.531761 30.211727 -2.431957 20.100306 33.083912 -0.342942 23.558915 20.682966 0.508812 15.116793 0.000000 0.000000 0.000000 
0.000000 0.000000 0.000000 11.993704 -4.096648 5.264704 30.343980 -2.465866 20.192857 33.462122 -0.316280 23.851747 20.969674 0.552347 15.344090 0.000000 0.000000 0.000000 
0.000000 0.000000 0.000000 11.665136 -4.167471 4.998443 30.474129 -2.501462 20.283996 33.837409 -0.290127 24.143543 21.254441 0.596319 15.570936 0.000000 0.000000 0.000000 
0.000000 0.000000 0.000000 11.339583 -4.240013 4.733047 30.602171 -2.538786 20.373721 34.209638 -0.264539 24.434226 21.537146 0.640694 15.797258 0.000000 0.000000 0.000000 
0.000000 0.000000 0.000000 11.017161 -4.314292 4.468579 30.728105 -2.577874 20.462029 34.578683 -0.239566 24.723719 21.817677 0.685438 16.022988 0.000000 0.000000 0.000000 
0.000000 0.000000 0.000000 10.697976 -4.390313 4.205108 30.851927 -2.618754 20.548920 34.944421 -0.215255 25.011947 22.095925 0.730519 16.248054 0.000000 0.000000 0.000000 
0.000000 0.000000 0.000000 10.382127 -4.468079 3.942698 30.973640 -2.661449 20.634393 35.306736 -0.191648 25.298836 22.371785 0.775904 16.472389 0.000000 0.000000 0.000000 
0.000000 0.000000 0.000000 10.069705 -4.547583 3.681414 31.093244 -2.705974 20.718450 35.665520 -0.168786 25.584312 22.645160 0.821564 16.695924 0.000000 0.000000 0.000000 
